<svg width="32" height="32" viewBox="0 0 32 32" xmlns="http://www.w3.org/2000/svg">
  <defs>
    <linearGradient id="gralixGradient" x1="0%" y1="0%" x2="100%" y2="100%">
      <stop offset="0%" style="stop-color:#6A1B9A;stop-opacity:1" />
      <stop offset="50%" style="stop-color:#FF6F20;stop-opacity:1" />
      <stop offset="100%" style="stop-color:#8E24AA;stop-opacity:1" />
    </linearGradient>
  </defs>
  
  <!-- Background circle -->
  <circle cx="16" cy="16" r="15" fill="url(#gralixGradient)" stroke="#FFFFFF" stroke-width="1"/>
  
  <!-- Gralix "G" letter -->
  <path d="M16 8 C12.5 8 10 10.5 10 14 C10 17.5 12.5 20 16 20 C18.5 20 20.5 18.5 21.5 16.5 L19.5 15.5 C19 16.5 17.5 17.5 16 17.5 C14 17.5 12.5 16 12.5 14 C12.5 12 14 10.5 16 10.5 C17 10.5 17.5 11 17.5 11.5 L17.5 13 L20 13 L20 11.5 C20 9.5 18.5 8 16 8 Z" fill="#FFFFFF"/>
  
  <!-- Accent dot -->
  <circle cx="22" cy="10" r="2" fill="#FFFFFF" opacity="0.8"/>
</svg>
